{
	"asset":{
		"generator":"Khronos glTF Blender I/O v4.2.70",
		"version":"2.0"
	},
	"scene":0,
	"scenes":[
		{
			"name":"Scene",
			"nodes":[
				0
			]
		}
	],
	"nodes":[
		{
			"mesh":0,
			"name":"Plane",
			"scale":[
				50,
				50,
				50
			]
		}
	],
	"meshes":[
		{
			"name":"Plane",
			"primitives":[
				{
					"attributes":{
						"POSITION":0,
						"NORMAL":1,
						"TEXCOORD_0":2
					},
					"indices":3
				}
			]
		}
	],
	"accessors":[
		{
			"bufferView":0,
			"componentType":5126,
			"count":66049,
			"max":[
				1.000000238418579,
				0,
				1.000000238418579
			],
			"min":[
				-1.000000238418579,
				0,
				-1.000000238418579
			],
			"type":"VEC3"
		},
		{
			"bufferView":1,
			"componentType":5126,
			"count":66049,
			"type":"VEC3"
		},
		{
			"bufferView":2,
			"componentType":5126,
			"count":66049,
			"type":"VEC2"
		},
		{
			"bufferView":3,
			"componentType":5125,
			"count":393216,
			"type":"SCALAR"
		}
	],
	"bufferViews":[
		{
			"buffer":0,
			"byteLength":792588,
			"byteOffset":0,
			"target":34962
		},
		{
			"buffer":0,
			"byteLength":792588,
			"byteOffset":792588,
			"target":34962
		},
		{
			"buffer":0,
			"byteLength":528392,
			"byteOffset":1585176,
			"target":34962
		},
		{
			"buffer":0,
			"byteLength":1572864,
			"byteOffset":2113568,
			"target":34963
		}
	],
	"buffers":[
		{
			"byteLength":3686432,
			"uri":"plane.bin"
		}
	]
}
